<mxfile host="app.diagrams.net" modified="2021-02-03T07:40:07.709Z" agent="5.0 (Windows NT 10.0; Win64; x64) AppleWebKit/537.36 (KHTML, like Gecko) Chrome/88.0.4324.96 Safari/537.36" etag="xG52UIDZ6--0Oj2SUS6F" version="14.2.9" type="github">
  <diagram id="R2lEEEUBdFMjLlhIrx00" name="Page-1">
    <mxGraphModel dx="868" dy="486" grid="1" gridSize="10" guides="1" tooltips="1" connect="1" arrows="1" fold="1" page="1" pageScale="1" pageWidth="850" pageHeight="1100" math="0" shadow="0" extFonts="Permanent Marker^https://fonts.googleapis.com/css?family=Permanent+Marker">
      <root>
        <mxCell id="0" />
        <mxCell id="1" parent="0" />
        <mxCell id="0ya6fTY9lLW40SIXNQ2a-1" value="&lt;h2&gt;&lt;font style=&quot;font-size: 18px&quot;&gt;User&lt;/font&gt;&lt;/h2&gt;" style="rounded=0;whiteSpace=wrap;html=1;" vertex="1" parent="1">
          <mxGeometry x="40" y="370" width="160" height="50" as="geometry" />
        </mxCell>
        <mxCell id="0ya6fTY9lLW40SIXNQ2a-2" value="&lt;h2&gt;&lt;font style=&quot;font-size: 14px&quot; face=&quot;Georgia&quot;&gt;Admin&lt;/font&gt;&lt;/h2&gt;" style="rounded=0;whiteSpace=wrap;html=1;" vertex="1" parent="1">
          <mxGeometry x="760" y="370" width="160" height="50" as="geometry" />
        </mxCell>
        <mxCell id="0ya6fTY9lLW40SIXNQ2a-3" value="" style="endArrow=none;html=1;exitX=1;exitY=0.5;exitDx=0;exitDy=0;entryX=0;entryY=0.5;entryDx=0;entryDy=0;" edge="1" parent="1" source="0ya6fTY9lLW40SIXNQ2a-4" target="0ya6fTY9lLW40SIXNQ2a-2">
          <mxGeometry width="50" height="50" relative="1" as="geometry">
            <mxPoint x="540" y="400" as="sourcePoint" />
            <mxPoint x="590" y="350" as="targetPoint" />
          </mxGeometry>
        </mxCell>
        <mxCell id="0ya6fTY9lLW40SIXNQ2a-4" value="" style="rhombus;whiteSpace=wrap;html=1;" vertex="1" parent="1">
          <mxGeometry x="240" y="355" width="80" height="80" as="geometry" />
        </mxCell>
        <mxCell id="0ya6fTY9lLW40SIXNQ2a-5" value="" style="endArrow=none;html=1;exitX=1;exitY=0.5;exitDx=0;exitDy=0;entryX=0;entryY=0.5;entryDx=0;entryDy=0;" edge="1" parent="1" source="0ya6fTY9lLW40SIXNQ2a-1" target="0ya6fTY9lLW40SIXNQ2a-4">
          <mxGeometry width="50" height="50" relative="1" as="geometry">
            <mxPoint x="200" y="395" as="sourcePoint" />
            <mxPoint x="760" y="395" as="targetPoint" />
          </mxGeometry>
        </mxCell>
        <mxCell id="0ya6fTY9lLW40SIXNQ2a-6" value="" style="rhombus;whiteSpace=wrap;html=1;" vertex="1" parent="1">
          <mxGeometry x="640" y="355" width="80" height="80" as="geometry" />
        </mxCell>
        <mxCell id="0ya6fTY9lLW40SIXNQ2a-7" value="" style="rounded=0;whiteSpace=wrap;html=1;" vertex="1" parent="1">
          <mxGeometry x="400" y="370" width="160" height="50" as="geometry" />
        </mxCell>
        <mxCell id="0ya6fTY9lLW40SIXNQ2a-9" value="&lt;h2&gt;&lt;font style=&quot;font-size: 18px&quot;&gt;User&lt;/font&gt;&lt;/h2&gt;" style="rounded=0;whiteSpace=wrap;html=1;" vertex="1" parent="1">
          <mxGeometry x="400" y="110" width="160" height="50" as="geometry" />
        </mxCell>
        <mxCell id="0ya6fTY9lLW40SIXNQ2a-10" value="" style="endArrow=none;html=1;entryX=0.5;entryY=0;entryDx=0;entryDy=0;exitX=0;exitY=0.5;exitDx=0;exitDy=0;" edge="1" parent="1" source="0ya6fTY9lLW40SIXNQ2a-9" target="0ya6fTY9lLW40SIXNQ2a-1">
          <mxGeometry width="50" height="50" relative="1" as="geometry">
            <mxPoint x="120" y="150" as="sourcePoint" />
            <mxPoint x="520" y="120" as="targetPoint" />
            <Array as="points">
              <mxPoint x="120" y="135" />
              <mxPoint x="120" y="190" />
              <mxPoint x="120" y="250" />
            </Array>
          </mxGeometry>
        </mxCell>
        <mxCell id="0ya6fTY9lLW40SIXNQ2a-16" value="" style="endArrow=none;html=1;exitX=1;exitY=0.5;exitDx=0;exitDy=0;entryX=0.5;entryY=0;entryDx=0;entryDy=0;" edge="1" parent="1" source="0ya6fTY9lLW40SIXNQ2a-9" target="0ya6fTY9lLW40SIXNQ2a-2">
          <mxGeometry width="50" height="50" relative="1" as="geometry">
            <mxPoint x="655" y="160" as="sourcePoint" />
            <mxPoint x="840" y="135" as="targetPoint" />
            <Array as="points">
              <mxPoint x="840" y="135" />
            </Array>
          </mxGeometry>
        </mxCell>
        <mxCell id="0ya6fTY9lLW40SIXNQ2a-17" value="" style="rhombus;whiteSpace=wrap;html=1;" vertex="1" parent="1">
          <mxGeometry x="240" y="95" width="80" height="80" as="geometry" />
        </mxCell>
        <mxCell id="0ya6fTY9lLW40SIXNQ2a-18" value="" style="rhombus;whiteSpace=wrap;html=1;" vertex="1" parent="1">
          <mxGeometry x="640" y="95" width="80" height="80" as="geometry" />
        </mxCell>
      </root>
    </mxGraphModel>
  </diagram>
</mxfile>
